<svg id="visual" viewBox="0 0 900 600" width="900" height="600" xmlns="http://www.w3.org/2000/svg" xmlns:xlink="http://www.w3.org/1999/xlink" version="1.1"><rect x="0" y="0" width="900" height="600" fill="#002233"></rect><path d="M0 515L21.5 501.2C43 487.3 86 459.7 128.8 458.3C171.7 457 214.3 482 257.2 472.3C300 462.7 343 418.3 385.8 399C428.7 379.7 471.3 385.3 514.2 402.3C557 419.3 600 447.7 642.8 465.7C685.7 483.7 728.3 491.3 771.2 483C814 474.7 857 450.3 878.5 438.2L900 426L900 601L878.5 601C857 601 814 601 771.2 601C728.3 601 685.7 601 642.8 601C600 601 557 601 514.2 601C471.3 601 428.7 601 385.8 601C343 601 300 601 257.2 601C214.3 601 171.7 601 128.8 601C86 601 43 601 21.5 601L0 601Z" fill="#0066FF" stroke-linecap="round" stroke-linejoin="miter"></path></svg>